<svg xmlns="http://www.w3.org/2000/svg" viewBox="0 0 1200 630" width="1200" height="630">
  <defs>
    <linearGradient id="bg" x1="0" y1="0" x2="1" y2="1">
      <stop offset="0%" stop-color="#f6eee1"/>
      <stop offset="100%" stop-color="#dce8f2"/>
    </linearGradient>
  </defs>
  <rect width="1200" height="630" fill="url(#bg)"/>
  <rect x="0" y="0" width="1200" height="8" fill="#005d73"/>
  <!-- Pin icons -->
  <g transform="translate(820,180) scale(2.5)">
    <path d="M14 0C6.8 0 1 5.8 1 13c0 9.8 11.4 25.2 12.3 26.3a1 1 0 0 0 1.4 0C15.6 38.2 27 22.8 27 13 27 5.8 21.2 0 14 0z" fill="#e63946" stroke="#fff" stroke-width="2"/>
    <circle cx="14" cy="13" r="4.3" fill="#fff"/>
  </g>
  <g transform="translate(920,220) scale(1.8)">
    <path d="M14 0C6.8 0 1 5.8 1 13c0 9.8 11.4 25.2 12.3 26.3a1 1 0 0 0 1.4 0C15.6 38.2 27 22.8 27 13 27 5.8 21.2 0 14 0z" fill="#e63946" stroke="#fff" stroke-width="2" opacity="0.7"/>
    <circle cx="14" cy="13" r="4.3" fill="#fff" opacity="0.7"/>
  </g>
  <g transform="translate(1000,260) scale(1.2)">
    <path d="M14 0C6.8 0 1 5.8 1 13c0 9.8 11.4 25.2 12.3 26.3a1 1 0 0 0 1.4 0C15.6 38.2 27 22.8 27 13 27 5.8 21.2 0 14 0z" fill="#e63946" stroke="#fff" stroke-width="2" opacity="0.4"/>
    <circle cx="14" cy="13" r="4.3" fill="#fff" opacity="0.4"/>
  </g>
  <!-- Title -->
  <text x="80" y="260" font-family="sans-serif" font-size="64" font-weight="900" fill="#10243d">東京児童イベントマップ</text>
  <!-- Subtitle -->
  <text x="80" y="340" font-family="sans-serif" font-size="30" fill="#3f556d">東京23区の児童向けイベントをマップで探せる</text>
  <!-- Tag line -->
  <text x="80" y="400" font-family="sans-serif" font-size="28" fill="#005d73" font-weight="700">今週末どこ行く？</text>
  <!-- Bottom bar -->
  <rect x="0" y="610" width="1200" height="20" fill="#005d73"/>
</svg>
